<svg viewBox="15.1003 20.1398 259.0002 115.7046" width="5000" height="2233.6778118318052" xmlns="http://www.w3.org/2000/svg" xmlns:xlink="http://www.w3.org/1999/xlink" preserveAspectRatio="none"><defs></defs><style>.aD6z1nYkhcolor {fill:#1E1E1E;fill-opacity:1;}.ag5fOcfGctfillColor {fill:#6A6565;fill-opacity:0;}.ag5fOcfGctstrokeColor-str {stroke:#F7F7F7;stroke-opacity:1;}.aJSLq-H0TO6fillColor {fill:#F7F7F7;fill-opacity:1;}.aJSLq-H0TO6strokeColor-str {stroke:#E7E7E7;stroke-opacity:1;}.aKHu0lcWV7YfillColor {fill:#6A6565;fill-opacity:0;}.aKHu0lcWV7YstrokeColor-str {stroke:#F7F7F7;stroke-opacity:1;}.amz66JiPPIkfillColor {fill:#F7F7F7;fill-opacity:1;}.amz66JiPPIkstrokeColor-str {stroke:#E7E7E7;stroke-opacity:1;}.aPuIY-qmwJdcolor {fill:#1E1E1E;fill-opacity:1;}.aPuIY-qmwJdstrokeColor-str {stroke:#FFFFFF;stroke-opacity:1;}.aUPl23inifillColor {fill:#F7F7F7;fill-opacity:1;}.avy7-l-Gq-color {fill:#F7F7F7;fill-opacity:1;}.aXhIPggvLzDfillColor {fill:#6A6565;fill-opacity:0;}.aXhIPggvLzDstrokeColor-str {stroke:#F7F7F7;stroke-opacity:1;}.aXq0lRByHvOcolor {fill:#1E1E1E;fill-opacity:1;}.aXq0lRByHvOstrokeColor-str {stroke:#FFFFFF;stroke-opacity:1;}.icon3-str {stroke:#FFFFFF;stroke-opacity:1;}.shapeStroke-str {stroke:#E7E7E7;stroke-opacity:1;}</style><g opacity="1" transform="rotate(0 15.1003 20.1398)">
<svg width="80" height="80" x="15.1003" y="20.1398" version="1.1" preserveAspectRatio="none" viewBox="0 0 80 80">
  <defs><rect x="0.4" y="0.4" width="79.2" height="79.2" rx="0px" ry="0px" id="id-g5fOcfGct"></rect></defs><use class="ag5fOcfGctfillColor ag5fOcfGctstrokeColor-str" style="stroke-width:0.8;" xlink:href="#id-g5fOcfGct"></use>
</svg>
</g><g opacity="1" transform="rotate(0 22.6003 27.6398)">
<svg width="65" height="65" x="22.6003" y="27.6398" version="1.1" preserveAspectRatio="none" viewBox="0 0 65 65">
  <defs><rect x="0" y="0" width="65" height="65" rx="0%" ry="0%" id="id-UPl23ini"></rect></defs><use class="aUPl23inifillColor shapeStroke-str" style="stroke-width:0;" xlink:href="#id-UPl23ini"></use>
</svg>
</g><g opacity="1" transform="rotate(0 33.5533 37.7034)">
<svg width="43.094" height="44.9999" x="33.5533" y="37.7034" version="1.1" preserveAspectRatio="none" viewBox="1.2 -28.32 27.12 28.32">
  <g transform="matrix(1 0 0 1 0 0)" class="aD6z1nYkhcolor"><path id="id-D6z1nYkh1" d="M28.32-28.32L28.32-27.52Q27.08-27.24 26.48-26.66Q25.88-26.08 25.68-24.88Q25.48-23.68 25.48-21.28L25.48-21.28L25.48 0Q24.68-0.08 24.16-0.08L24.16-0.08Q23.72-0.08 22.68 0L22.68 0L4.96-19.36L4.96-7.84Q4.96-4.88 5.20-3.58Q5.44-2.28 6.26-1.68Q7.08-1.08 9-0.80L9-0.80L9 0Q7.36-0.12 4.52-0.12L4.52-0.12Q2.40-0.12 1.20 0L1.20 0L1.20-0.80Q2.44-1.08 3.04-1.66Q3.64-2.24 3.84-3.44Q4.04-4.64 4.04-7.04L4.04-7.04L4.04-24.08Q4.04-25.60 3.82-26.28Q3.60-26.96 3.04-27.20Q2.48-27.44 1.20-27.52L1.20-27.52L1.20-28.32Q2.40-28.20 4.52-28.20L4.52-28.20Q6.68-28.20 8.20-28.32L8.20-28.32L24.56-11.04L24.56-20.48Q24.56-23.44 24.32-24.74Q24.08-26.04 23.26-26.64Q22.44-27.24 20.52-27.52L20.52-27.52L20.52-28.32Q22.16-28.20 25-28.20L25-28.20Q27.12-28.20 28.32-28.32L28.32-28.32Z"/></g>
</svg>
</g><g opacity="1" transform="rotate(0 15.1003 105.4184)">
<svg width="259.0002" height="30.426" x="15.1003" y="105.4184" version="1.1" preserveAspectRatio="none" viewBox="1.12 -28.32 245.84 28.880000000000003">
  <g transform="matrix(1 0 0 1 0 0)" class="avy7-l-Gq-color"><path id="id-vy7-l-Gq-8" d="M28.36-3.24Q28.92-2.32 29.44-1.78Q29.96-1.24 30.80-0.80L30.80-0.80L30.80 0Q27.44-0.12 23.60-0.12L23.60-0.12Q20.64-0.12 17.88 0L17.88 0L17.88-0.80Q19.16-0.88 19.66-1.02Q20.16-1.16 20.16-1.56L20.16-1.56Q20.16-1.96 19.76-2.60L19.76-2.60L13.96-12.40Q13.40-13.36 13.02-13.72Q12.64-14.08 12.08-14.16L12.08-14.16L12.08-4.24Q12.08-2.72 12.30-2.04Q12.52-1.36 13.08-1.12Q13.64-0.88 14.92-0.80L14.92-0.80L14.92 0Q12.60-0.12 8.24-0.12L8.24-0.12Q3.40-0.12 1.12 0L1.12 0L1.12-0.80Q2.40-0.88 2.98-1.12Q3.56-1.36 3.76-2.04Q3.96-2.72 3.96-4.24L3.96-4.24L3.96-24.08Q3.96-25.60 3.74-26.28Q3.52-26.96 2.96-27.20Q2.40-27.44 1.12-27.52L1.12-27.52L1.12-28.32Q3.40-28.20 8.24-28.20L8.24-28.20Q12.56-28.20 14.92-28.32L14.92-28.32L14.92-27.52Q13.64-27.44 13.06-27.20Q12.48-26.96 12.28-26.28Q12.08-25.60 12.08-24.08L12.08-24.08L12.08-15.04Q13.68-15.16 15.20-16.24Q16.72-17.32 18.92-19.80L18.92-19.80L20.28-21.32Q22.04-23.32 22.04-24.92L22.04-24.92Q22.04-26.08 21.12-26.78Q20.20-27.48 18.76-27.56L18.76-27.56L18.76-28.32Q22.12-28.20 25.52-28.20L25.52-28.20Q27.96-28.20 29.56-28.32L29.56-28.32L29.56-27.56Q26.08-26.64 23-23.16L23-23.16L19.08-18.72L28.36-3.24Z M60-24.32L60-23.52Q58.56-23.24 57.90-22.66Q57.24-22.08 57-20.88Q56.76-19.68 56.76-17.28L56.76-17.28L56.76-10.84Q56.76-8.08 56.38-6.14Q56-4.20 55.12-2.76L55.12-2.76Q54.12-1.24 52.18-0.34Q50.24 0.56 47.80 0.56L47.80 0.56Q43.04 0.56 40.28-1.20L40.28-1.20Q38.76-2.24 37.96-3.44Q37.16-4.64 36.84-6.32Q36.52-8 36.52-10.72L36.52-10.72L36.52-20.08Q36.52-21.60 36.30-22.28Q36.08-22.96 35.52-23.20Q34.96-23.44 33.68-23.52L33.68-23.52L33.68-24.32Q35.84-24.20 40.40-24.20L40.40-24.20Q44.76-24.20 47.08-24.32L47.08-24.32L47.08-23.52Q45.80-23.44 45.22-23.20Q44.64-22.96 44.44-22.28Q44.24-21.60 44.24-20.08L44.24-20.08L44.24-10.04Q44.24-7.20 44.62-5.34Q45-3.48 46.20-2.36Q47.40-1.24 49.76-1.24L49.76-1.24Q53.12-1.24 54.48-3.66Q55.84-6.08 55.84-10.40L55.84-10.40L55.84-16.48Q55.84-19.44 55.60-20.74Q55.36-22.04 54.54-22.64Q53.72-23.24 51.80-23.52L51.80-23.52L51.80-24.32Q53.44-24.20 56.28-24.20L56.28-24.20Q58.68-24.20 60-24.32L60-24.32Z M92.12-2.20L92.68-1.68Q91.56-0.56 90.22 0Q88.88 0.56 86.80 0.56L86.80 0.56Q84.20 0.56 82.80-0.34Q81.40-1.24 81-2.84L81-2.84L79.88-7.36Q79.52-9.56 78.76-10.30Q78-11.04 76.52-11.04L76.52-11.04L75.84-11.04L75.84-4.24Q75.84-2.72 76.06-2.04Q76.28-1.36 76.84-1.12Q77.40-0.88 78.68-0.80L78.68-0.80L78.68 0Q76.12-0.12 71.20-0.12L71.20-0.12Q67.20-0.12 65.28 0L65.28 0L65.28-0.80Q66.56-0.88 67.14-1.12Q67.72-1.36 67.92-2.04Q68.12-2.72 68.12-4.24L68.12-4.24L68.12-20.08Q68.12-21.60 67.90-22.28Q67.68-22.96 67.12-23.20Q66.56-23.44 65.28-23.52L65.28-23.52L65.28-24.32Q67.20-24.20 70.96-24.20L70.96-24.20L75.84-24.24Q76.68-24.28 77.80-24.28L77.80-24.28Q89.44-24.28 89.44-18.12L89.44-18.12Q89.44-15.56 87.14-13.68Q84.84-11.80 79.40-11.32L79.40-11.32Q79.56-11.32 79.82-11.30Q80.08-11.28 80.44-11.20L80.44-11.20Q83.80-10.88 85.74-9.94Q87.68-9 88.20-6.92L88.20-6.92L89.04-3.40Q89.28-2.40 89.68-2.02Q90.08-1.64 90.72-1.64L90.72-1.64Q91.44-1.64 92.12-2.20L92.12-2.20ZM77.60-23.52Q76.84-23.52 76.48-23.24Q76.12-22.96 75.98-22.24Q75.84-21.52 75.84-20.08L75.84-20.08L75.84-11.84L76.92-11.84Q79.52-11.84 80.48-13.38Q81.44-14.92 81.44-17.68L81.44-17.68Q81.44-20.60 80.56-22.06Q79.68-23.52 77.60-23.52L77.60-23.52Z M122.36-24.32L122.36-23.52Q120.92-23.24 120.26-22.66Q119.60-22.08 119.36-20.88Q119.12-19.68 119.12-17.28L119.12-17.28L119.12-10.84Q119.12-8.08 118.74-6.14Q118.36-4.20 117.48-2.76L117.48-2.76Q116.48-1.24 114.54-0.34Q112.60 0.56 110.16 0.56L110.16 0.56Q105.40 0.56 102.64-1.20L102.64-1.20Q101.12-2.24 100.32-3.44Q99.52-4.64 99.20-6.32Q98.88-8 98.88-10.72L98.88-10.72L98.88-20.08Q98.88-21.60 98.66-22.28Q98.44-22.96 97.88-23.20Q97.32-23.44 96.04-23.52L96.04-23.52L96.04-24.32Q98.20-24.20 102.76-24.20L102.76-24.20Q107.12-24.20 109.44-24.32L109.44-24.32L109.44-23.52Q108.16-23.44 107.58-23.20Q107.00-22.96 106.80-22.28Q106.60-21.60 106.60-20.08L106.60-20.08L106.60-10.04Q106.60-7.20 106.98-5.34Q107.36-3.48 108.56-2.36Q109.76-1.24 112.12-1.24L112.12-1.24Q115.48-1.24 116.84-3.66Q118.20-6.08 118.20-10.40L118.20-10.40L118.20-16.48Q118.20-19.44 117.96-20.74Q117.72-22.04 116.90-22.64Q116.08-23.24 114.16-23.52L114.16-23.52L114.16-24.32Q115.80-24.20 118.64-24.20L118.64-24.20Q121.04-24.20 122.36-24.32L122.36-24.32Z M161.64-23.52Q160.20-23.44 159.54-23.20Q158.88-22.96 158.64-22.28Q158.40-21.60 158.40-20.08L158.40-20.08L158.40-4.24Q158.40-2.72 158.64-2.04Q158.88-1.36 159.54-1.12Q160.20-0.88 161.64-0.80L161.64-0.80L161.64 0Q159.32-0.12 154.96-0.12L154.96-0.12Q149.56-0.12 147.04 0L147.04 0L147.04-0.80Q148.48-0.88 149.14-1.12Q149.80-1.36 150.04-2.04Q150.28-2.72 150.28-4.24L150.28-4.24L150.28-21.80L141.44 0.20L140.80 0.20L131.52-21.76L131.52-5.84Q131.52-3.92 131.86-2.96Q132.20-2 133.12-1.54Q134.04-1.08 135.96-0.80L135.96-0.80L135.96 0Q134.00-0.12 131.08-0.12L131.08-0.12Q128.96-0.12 127.76 0L127.76 0L127.76-0.80Q129.04-1.08 129.62-1.54Q130.20-2 130.40-2.94Q130.60-3.88 130.60-5.84L130.60-5.84L130.60-20.08Q130.60-21.60 130.36-22.28Q130.12-22.96 129.46-23.20Q128.80-23.44 127.36-23.52L127.36-23.52L127.36-24.32Q130.00-24.20 135.48-24.20L135.48-24.20Q137.68-24.20 139.16-24.32L139.16-24.32L144.84-10.72L150.28-24.20L154.96-24.20Q159.32-24.20 161.64-24.32L161.64-24.32L161.64-23.52Z M179.04-24.88Q182.40-24.88 185.12-23.40L185.12-23.40Q185.56-23.16 185.90-23Q186.24-22.84 186.48-22.84L186.48-22.84Q186.84-22.84 187.04-23.26Q187.24-23.68 187.36-24.60L187.36-24.60L188.28-24.60Q188.08-22 188.08-15.64L188.08-15.64L187.16-15.64Q186.60-19.72 184.54-21.82Q182.48-23.92 179.48-23.92L179.48-23.92Q177.56-23.92 176.44-23.20Q175.32-22.48 175.32-21.32L175.32-21.32Q175.32-20.28 176.08-19.34Q176.84-18.40 178.04-17.56Q179.24-16.72 181.84-15.08L181.84-15.08Q184.24-13.68 185.76-12.54Q187.28-11.40 188.32-9.82Q189.36-8.24 189.36-6.24L189.36-6.24Q189.36-2.96 186.36-1.20Q183.36 0.56 178.36 0.56L178.36 0.56Q176.44 0.56 175.04 0.14Q173.64-0.28 171.72-1.04L171.72-1.04Q170.64-1.48 170.32-1.48L170.32-1.48Q169.96-1.48 169.76-1.06Q169.56-0.64 169.44 0.28L169.44 0.28L168.52 0.28Q168.68-2.12 168.68-10.12L168.68-10.12L169.60-10.12Q169.92-5.48 172.12-2.96Q174.32-0.44 178.08-0.44L178.08-0.44Q179.76-0.44 180.98-1.20Q182.20-1.96 182.20-3.52L182.20-3.52Q182.20-4.96 181.12-6.04Q180.04-7.12 177.28-8.84L177.28-8.84Q173.12-11.32 170.92-13.46Q168.72-15.60 168.72-18.24L168.72-18.24Q168.72-21.48 171.56-23.18Q174.40-24.88 179.04-24.88L179.04-24.88Z M217.92-3.36Q219.12-0.88 220.28-0.80L220.28-0.80L220.28 0Q218.24-0.12 214.40-0.12L214.40-0.12Q209.56-0.12 207.28 0L207.28 0L207.28-0.80Q208.52-0.88 209.12-1.22Q209.72-1.56 209.72-2.36L209.72-2.36Q209.72-3.08 209.20-4.16L209.20-4.16L207.24-8.72L199.76-8.72Q198.40-5.60 198.40-3.72L198.40-3.72Q198.40-2.12 199.36-1.50Q200.32-0.88 202.12-0.80L202.12-0.80L202.12 0Q199.12-0.12 196.88-0.12L196.88-0.12Q195.00-0.12 193.80 0L193.80 0L193.80-0.80Q194.76-0.96 195.58-2Q196.40-3.04 197.48-5.48L197.48-5.48L205.68-24.32Q206.56-24.24 207.00-24.24L207.00-24.24Q207.44-24.24 208.32-24.32L208.32-24.32L217.92-3.36ZM200.08-9.52L206.88-9.52L203.48-17.36L200.08-9.52Z M238.40-24.32L238.40-23.52Q237.12-23.44 236.54-23.20Q235.96-22.96 235.76-22.28Q235.56-21.60 235.56-20.08L235.56-20.08L235.56-3.44Q235.56-1.88 236.02-1.40Q236.48-0.92 237.60-0.92L237.60-0.92L238.52-0.92Q241.08-0.92 243.08-3Q245.08-5.08 245.88-9.60L245.88-9.60L246.80-9.60Q246.68-8.28 246.68-6.32L246.68-6.32Q246.68-3.52 246.96 0L246.96 0Q244.36-0.12 238.20-0.12L238.20-0.12Q229.40-0.12 225.00 0L225.00 0L225.00-0.80Q226.28-0.88 226.86-1.12Q227.44-1.36 227.64-2.04Q227.84-2.72 227.84-4.24L227.84-4.24L227.84-20.08Q227.84-21.60 227.62-22.28Q227.40-22.96 226.84-23.20Q226.28-23.44 225.00-23.52L225.00-23.52L225.00-24.32Q227.28-24.20 232.12-24.20L232.12-24.20Q236.16-24.20 238.40-24.32L238.40-24.32Z"/></g>
</svg>
</g><g opacity="1" transform="rotate(0 104.6004 20.1398)">
<svg width="80" height="80.0001" x="104.6004" y="20.1398" version="1.1" preserveAspectRatio="none" viewBox="0 0 80 80.0001">
  <defs><rect x="0.4" y="0.4" width="79.2" height="79.2001" rx="0px" ry="0px" id="id-KHu0lcWV7Y"></rect></defs><use class="aKHu0lcWV7YfillColor aKHu0lcWV7YstrokeColor-str" style="stroke-width:0.8;" xlink:href="#id-KHu0lcWV7Y"></use>
</svg>
</g><g opacity="1" transform="rotate(0 112.1004 27.6398)">
<svg width="65" height="65.0001" x="112.1004" y="27.6398" version="1.1" preserveAspectRatio="none" viewBox="0 0 65 65.0001">
  <defs><rect x="0" y="0" width="65" height="65.0001" rx="0%" ry="0%" id="id-JSLq-H0TO6"></rect></defs><use class="aJSLq-H0TO6fillColor aJSLq-H0TO6strokeColor-str" style="stroke-width:0;" xlink:href="#id-JSLq-H0TO6"></use>
</svg>
</g><g opacity="1" transform="rotate(0 124.4518 37.7034)">
<svg width="40.2973" height="44.9999" x="124.4518" y="37.7034" version="1.1" preserveAspectRatio="none" viewBox="1.12 -28.32 25.36 28.32">
  <g transform="matrix(1 0 0 1 0 0)" class="aXq0lRByHvOcolor"><path id="id-Xq0lRByHvO1" d="M13.56-11.44L12.08-11.44L12.08-4.64Q12.08-2.96 12.42-2.20Q12.76-1.44 13.66-1.18Q14.56-0.92 16.52-0.92L16.52-0.92L16.52 0Q11.12-0.12 8.28-0.12L8.28-0.12Q6.40-0.12 3.04-0.04L3.04-0.04L1.12 0L1.12-0.80Q2.40-0.88 2.98-1.12Q3.56-1.36 3.76-2.04Q3.96-2.72 3.96-4.24L3.96-4.24L3.96-24.08Q3.96-25.60 3.74-26.28Q3.52-26.96 2.96-27.20Q2.40-27.44 1.12-27.52L1.12-27.52L1.12-28.32Q3.40-28.20 8-28.20L8-28.20L12.60-28.24Q13.40-28.28 14.44-28.28L14.44-28.28Q20.36-28.28 23.42-26.14Q26.48-24 26.48-20.40L26.48-20.40Q26.48-18.20 25.28-16.18Q24.08-14.16 21.20-12.80Q18.32-11.44 13.56-11.44L13.56-11.44ZM14.24-27.52Q13.32-27.52 12.86-27.24Q12.40-26.96 12.24-26.24Q12.08-25.52 12.08-24.08L12.08-24.08L12.08-12.24L13.16-12.24Q15.96-12.24 17.02-14.32Q18.08-16.40 18.08-19.96L18.08-19.96Q18.08-23.84 17.20-25.68Q16.32-27.52 14.24-27.52L14.24-27.52Z"/></g>
</svg>
</g><g opacity="1" transform="rotate(0 194.1005 20.2033)">
<svg width="80" height="80.0001" x="194.1005" y="20.2033" version="1.1" preserveAspectRatio="none" viewBox="0 0 80 80.0001">
  <defs><rect x="0.4" y="0.4" width="79.2" height="79.2001" rx="0px" ry="0px" id="id-XhIPggvLzD"></rect></defs><use class="aXhIPggvLzDfillColor aXhIPggvLzDstrokeColor-str" style="stroke-width:0.8;" xlink:href="#id-XhIPggvLzD"></use>
</svg>
</g><g opacity="1" transform="rotate(0 201.6005 27.7033)">
<svg width="65" height="65.0001" x="201.6005" y="27.7033" version="1.1" preserveAspectRatio="none" viewBox="0 0 65 65.0001">
  <defs><rect x="0" y="0" width="65" height="65.0001" rx="0%" ry="0%" id="id-mz66JiPPIk"></rect></defs><use class="amz66JiPPIkfillColor amz66JiPPIkstrokeColor-str" style="stroke-width:0;" xlink:href="#id-mz66JiPPIk"></use>
</svg>
</g><g opacity="1" transform="rotate(0 217.3206 37.7669)">
<svg width="33.5599" height="46.7796" x="217.3206" y="37.7669" version="1.1" preserveAspectRatio="none" viewBox="1.96 -28.88 21.12 29.44">
  <g transform="matrix(1 0 0 1 0 0)" class="aPuIY-qmwJdcolor"><path id="id-PuIY-qmwJd1" d="M12.08-28.88Q14.36-28.88 15.78-28.46Q17.20-28.04 18.56-27.28L18.56-27.28Q19-27.04 19.34-26.88Q19.68-26.72 19.92-26.72L19.92-26.72Q20.28-26.72 20.48-27.14Q20.68-27.56 20.80-28.48L20.80-28.48L21.72-28.48Q21.52-25.60 21.52-18.72L21.52-18.72L20.60-18.72Q20.44-21 19.56-23.08Q18.68-25.16 17.16-26.48Q15.64-27.80 13.64-27.80L13.64-27.80Q11.80-27.80 10.68-26.82Q9.56-25.84 9.56-24.08L9.56-24.08Q9.56-22.72 10.16-21.72Q10.76-20.72 11.92-19.78Q13.08-18.84 15.72-17L15.72-17Q15.96-16.88 16.18-16.72Q16.40-16.56 16.60-16.40L16.60-16.40Q18.80-14.88 20.12-13.70Q21.44-12.52 22.26-10.96Q23.08-9.40 23.08-7.36L23.08-7.36Q23.08-4.76 21.62-2.98Q20.16-1.20 17.68-0.32Q15.20 0.56 12.20 0.56L12.20 0.56Q9.76 0.56 8.14 0.16Q6.52-0.24 5.12-0.92L5.12-0.92Q4.24-1.48 3.76-1.48L3.76-1.48Q3.40-1.48 3.20-1.06Q3-0.64 2.88 0.28L2.88 0.28L1.96 0.28Q2.12-2.44 2.12-11.32L2.12-11.32L3.04-11.32Q3.32-6.56 5.04-3.60Q6.76-0.64 10.32-0.64L10.32-0.64Q12.52-0.64 13.82-1.68Q15.12-2.72 15.12-4.56L15.12-4.56Q15.12-6.84 13.70-8.46Q12.28-10.08 9.28-12.08L9.28-12.08Q6.88-13.68 5.44-14.88Q4-16.08 3.08-17.66Q2.16-19.24 2.16-21.32L2.16-21.32Q2.16-23.84 3.52-25.54Q4.88-27.24 7.14-28.06Q9.40-28.88 12.08-28.88L12.08-28.88Z"/></g>
</svg>
</g></svg>